# xmcd CD database file
#
# Track frame offsets:
#	150
#	12379
#	22887
#	36201
#	48853
#	74671
#	97019
#	132722
#	160635
#	181670
#	201553
#	230928
#	255978
#	273628
#	289894
#	317853
#
# Disc length: 4514 seconds
#
# Revision: 1
# Processed by: cddbd v1.5.2PL0 Copyright (c) Steve Scherf et al.
# Submitted via: CDex 1.70beta2
#
DISCID=f011a010
DTITLE=Shorty Rogers - Shorty Goes to ... Hollywood 1
DYEAR=1954
DGENRE=Jazz
TTITLE0=Joycicle
TTITLE1=The Lady Is a Tramp
TTITLE2=The Goof and I
TTITLE3=My Little Suede Shoes
TTITLE4=Isn't It Romantic
TTITLE5=Not Really the Blues
TTITLE6=Martians Go Home
TTITLE7=My Heart Stood Still
TTITLE8=Trickey Didlier
TTITLE9=Solarization
TTITLE10=Oh Play That Thing
TTITLE11=That's What I'm Talking About
TTITLE12=Michele's Meditation
TTITLE13=Planetarium
TTITLE14=Martians Come Back
TTITLE15=March of the Martians
EXTD=YEAR: 1954
EXTT0=
EXTT1=
EXTT2=
EXTT3=
EXTT4=
EXTT5=
EXTT6=
EXTT7=
EXTT8=
EXTT9=
EXTT10=
EXTT11=
EXTT12=
EXTT13=
EXTT14=
EXTT15=
PLAYORDER=
